<?xml version="1.0" standalone="no"?>
<!DOCTYPE svg PUBLIC "-//W3C//DTD SVG 20010904//EN"
 "http://www.w3.org/TR/2001/REC-SVG-20010904/DTD/svg10.dtd">
<svg version="1.0" xmlns="http://www.w3.org/2000/svg"
 width="260.000000pt" height="260.000000pt" viewBox="0 0 260.000000 260.000000"
 preserveAspectRatio="xMidYMid meet">
<metadata>
Created by potrace 1.14, written by Peter Selinger 2001-2017
</metadata>
<g transform="translate(0.000000,260.000000) scale(0.100000,-0.100000)"
fill="#000000" stroke="none">
<path d="M1510 2182 c-51 -5 -66 -12 -96 -39 -51 -47 -59 -83 -55 -258 l1 -40
515 1 c283 1 530 5 549 8 19 4 46 16 60 27 48 38 60 74 62 194 l3 110 -507 0
c-279 0 -518 -1 -532 -3z"/>
<path d="M64 2073 c3 -132 21 -174 91 -211 25 -13 71 -16 260 -17 207 -1 234
-3 269 -21 113 -56 140 -198 54 -285 -17 -17 -43 -36 -57 -42 -16 -6 -115 -11
-248 -13 -239 -2 -262 -5 -305 -35 -49 -35 -62 -73 -64 -191 -1 -60 1 -109 4
-109 4 -1 142 -2 307 -3 290 -2 302 -2 345 -24 126 -63 155 -229 57 -323 -56
-54 -84 -59 -341 -59 -271 0 -298 -6 -346 -76 -21 -32 -24 -48 -27 -145 l-2
-109 37 -1 c20 0 168 -1 327 -1 246 -1 299 2 350 16 158 46 297 167 358 311
56 134 52 297 -12 437 -20 45 -84 137 -105 150 -7 5 -3 17 11 35 87 119 118
282 83 438 -27 120 -138 259 -257 323 -108 57 -145 62 -485 62 l-307 0 3 -107z"/>
<path d="M1479 1480 c-43 -12 -79 -41 -99 -81 -18 -35 -25 -105 -21 -222 l1
-28 504 3 c492 3 505 4 532 24 61 45 69 66 72 194 l4 119 -484 -1 c-266 -1
-495 -4 -509 -8z"/>
<path d="M1373 739 c-14 -5 -16 -21 -14 -108 2 -127 16 -161 84 -206 26 -17
62 -18 563 -19 467 -1 535 1 538 14 11 40 -1 206 -17 237 -19 36 -61 69 -100
78 -33 9 -1031 12 -1054 4z"/>
</g>
</svg>
